# xmcd
#
# Track frame offsets:
#	150
#	13183
#	26607
#	67283
#	84844
#	92269
#	100904
#	118210
#	126667
#
# Disc length: 1915 seconds
#
# Revision: 0
# Processed by: cddbd v1.5.2PL0 Copyright (c) Steve Scherf et al.
# Submitted via: EasyCDDAExtractor 2010.6.0.0
#
DISCID=76077909
DTITLE=Moris - Ciudad de Guitarras Callejeras
DYEAR=1900
DGENRE=
TTITLE0=Mi Querido amigo Pipo
TTITLE1=Rock de Campana
TTITLE2=Muchacho del Taller y la Oficina
TTITLE3=El Mendigo del Dock Sud
TTITLE4=Tengo 40 Millones
TTITLE5=A veces estoy Cansado
TTITLE6=Cabalgando por el Campo
TTITLE7=Te Tocaran el Timbre
TTITLE8=De Aqui a Donde Ire
EXTD=
EXTT0=
EXTT1=
EXTT2=
EXTT3=
EXTT4=
EXTT5=
EXTT6=
EXTT7=
EXTT8=
PLAYORDER=
